<svg xmlns="http://www.w3.org/2000/svg" viewBox="0 0 48 48">
  <path fill="#EA4335" d="M24 9.5c3.54 0 6.72 1.22 9.21 3.6l6.85-6.85C35.9 2.38 30.47 0 24 0 14.61 0 6.55 5.38 2.58 13.22l7.98 6.2C12.49 13.27 17.77 9.5 24 9.5z"/>
  <path fill="#4285F4" d="M46.5 24.5c0-1.64-.15-3.22-.43-4.74H24v9h12.65c-.55 2.96-2.25 5.47-4.8 7.15l7.73 6c4.51-4.16 6.92-10.28 6.92-17.41z"/>
  <path fill="#FBBC05" d="M10.56 28.58A14.4 14.4 0 0 1 9.5 24c0-1.59.28-3.13.78-4.58l-7.98-6.2A24 24 0 0 0 0 24c0 3.88.93 7.57 2.58 10.78l7.98-6.2z"/>
  <path fill="#34A853" d="M24 48c6.48 0 11.92-2.14 15.88-5.84l-7.73-6c-2.14 1.44-4.87 2.3-8.15 2.3-6.23 0-11.51-3.77-13.44-9.08l-7.98 6.2C6.55 42.62 14.61 48 24 48z"/>
</svg>